<svg width="32" height="32" viewBox="0 0 32 32" fill="none" xmlns="http://www.w3.org/2000/svg">
<path d="M11.9998 29.3334H19.9998C26.6665 29.3334 29.3332 26.6667 29.3332 20.0001V12.0001C29.3332 5.33341 26.6665 2.66675 19.9998 2.66675H11.9998C5.33317 2.66675 2.6665 5.33341 2.6665 12.0001V20.0001C2.6665 26.6667 5.33317 29.3334 11.9998 29.3334Z" stroke="#78C2CC" stroke-width="1.5" stroke-linecap="round" stroke-linejoin="round"/>
<path d="M12.0002 13.3333C13.4729 13.3333 14.6668 12.1394 14.6668 10.6667C14.6668 9.19391 13.4729 8 12.0002 8C10.5274 8 9.3335 9.19391 9.3335 10.6667C9.3335 12.1394 10.5274 13.3333 12.0002 13.3333Z" stroke="#78C2CC" stroke-width="1.5" stroke-linecap="round" stroke-linejoin="round"/>
<path d="M3.56006 25.2666L10.1334 20.8532C11.1867 20.1466 12.7067 20.2266 13.6534 21.0399L14.0934 21.4266C15.1334 22.3199 16.8134 22.3199 17.8534 21.4266L23.4001 16.6666C24.4401 15.7732 26.1201 15.7732 27.1601 16.6666L29.3334 18.5332" stroke="#78C2CC" stroke-width="1.5" stroke-linecap="round" stroke-linejoin="round"/>
</svg>
