<svg xmlns="http://www.w3.org/2000/svg">
  <symbol id='map-icon' viewBox="0 0 24 24" fill="currentColor">
    <path d="M18.364 17.364L12 23.7279L5.63604 17.364C2.12132 13.8492 2.12132 8.15076 5.63604 4.63604C9.15076 1.12132 14.8492 1.12132 18.364 4.63604C21.8787 8.15076 21.8787 13.8492 18.364 17.364ZM12 15C14.2091 15 16 13.2091 16 11C16 8.79086 14.2091 7 12 7C9.79086 7 8 8.79086 8 11C8 13.2091 9.79086 15 12 15ZM12 13C10.8954 13 10 12.1046 10 11C10 9.89543 10.8954 9 12 9C13.1046 9 14 9.89543 14 11C14 12.1046 13.1046 13 12 13Z" />
  </symbol>
  <symbol id='time' viewBox="0 0 24 24" fill="currentColor">
    <path d="M17.6177 5.9681L19.0711 4.51472L20.4853 5.92893L19.0319 7.38231C20.2635 8.92199 21 10.875 21 13C21 17.9706 16.9706 22 12 22C7.02944 22 3 17.9706 3 13C3 8.02944 7.02944 4 12 4C14.125 4 16.078 4.73647 17.6177 5.9681ZM12 20C15.866 20 19 16.866 19 13C19 9.13401 15.866 6 12 6C8.13401 6 5 9.13401 5 13C5 16.866 8.13401 20 12 20ZM11 8H13V14H11V8ZM8 1H16V3H8V1Z" />
  </symbol>
  <symbol id='leaf' viewBox="0 0 24 24" fill="currentColor">
    <path d="M20.998 3V5C20.998 14.6274 15.6255 19 8.99805 19L7.0964 18.9999C7.3079 15.9876 8.24541 14.1648 10.6939 11.9989C11.8979 10.9338 11.7965 10.3189 11.2029 10.6721C7.1193 13.1016 5.09114 16.3862 5.00119 21.6302L4.99805 22H2.99805C2.99805 20.6373 3.11376 19.3997 3.34381 18.2682C3.1133 16.9741 2.99805 15.2176 2.99805 13C2.99805 7.47715 7.4752 3 12.998 3C14.998 3 16.998 4 20.998 3Z /">
  </symbol>
</svg>
